<svg id="visual" viewBox="0 0 900 600" width="900" height="600" xmlns="http://www.w3.org/2000/svg" xmlns:xlink="http://www.w3.org/1999/xlink" version="1.1"><rect x="0" y="0" width="900" height="600" fill="#001220"></rect><defs><linearGradient id="grad1_0" x1="33.3%" y1="100%" x2="100%" y2="0%"><stop offset="20%" stop-color="#c62368" stop-opacity="1"></stop><stop offset="80%" stop-color="#c62368" stop-opacity="1"></stop></linearGradient></defs><defs><linearGradient id="grad1_1" x1="33.3%" y1="100%" x2="100%" y2="0%"><stop offset="20%" stop-color="#c62368" stop-opacity="1"></stop><stop offset="80%" stop-color="#8a2b72" stop-opacity="1"></stop></linearGradient></defs><defs><linearGradient id="grad1_2" x1="33.3%" y1="100%" x2="100%" y2="0%"><stop offset="20%" stop-color="#4b2d66" stop-opacity="1"></stop><stop offset="80%" stop-color="#8a2b72" stop-opacity="1"></stop></linearGradient></defs><defs><linearGradient id="grad1_3" x1="33.3%" y1="100%" x2="100%" y2="0%"><stop offset="20%" stop-color="#4b2d66" stop-opacity="1"></stop><stop offset="80%" stop-color="#172447" stop-opacity="1"></stop></linearGradient></defs><defs><linearGradient id="grad1_4" x1="33.3%" y1="100%" x2="100%" y2="0%"><stop offset="20%" stop-color="#001220" stop-opacity="1"></stop><stop offset="80%" stop-color="#172447" stop-opacity="1"></stop></linearGradient></defs><defs><linearGradient id="grad2_0" x1="0%" y1="100%" x2="66.7%" y2="0%"><stop offset="20%" stop-color="#c62368" stop-opacity="1"></stop><stop offset="80%" stop-color="#c62368" stop-opacity="1"></stop></linearGradient></defs><defs><linearGradient id="grad2_1" x1="0%" y1="100%" x2="66.7%" y2="0%"><stop offset="20%" stop-color="#8a2b72" stop-opacity="1"></stop><stop offset="80%" stop-color="#c62368" stop-opacity="1"></stop></linearGradient></defs><defs><linearGradient id="grad2_2" x1="0%" y1="100%" x2="66.7%" y2="0%"><stop offset="20%" stop-color="#8a2b72" stop-opacity="1"></stop><stop offset="80%" stop-color="#4b2d66" stop-opacity="1"></stop></linearGradient></defs><defs><linearGradient id="grad2_3" x1="0%" y1="100%" x2="66.7%" y2="0%"><stop offset="20%" stop-color="#172447" stop-opacity="1"></stop><stop offset="80%" stop-color="#4b2d66" stop-opacity="1"></stop></linearGradient></defs><defs><linearGradient id="grad2_4" x1="0%" y1="100%" x2="66.7%" y2="0%"><stop offset="20%" stop-color="#172447" stop-opacity="1"></stop><stop offset="80%" stop-color="#001220" stop-opacity="1"></stop></linearGradient></defs><g transform="translate(900, 600)"><path d="M-432.7 0C-418.2 -53.1 -403.8 -106.1 -385.3 -159.6C-366.7 -213 -344 -266.9 -305.9 -305.9C-267.8 -345 -214.3 -369.4 -160.7 -388C-107.2 -406.7 -53.6 -419.7 0 -432.7L0 0Z" fill="#061c33"></path><path d="M-346.1 0C-334.6 -42.5 -323 -84.9 -308.2 -127.7C-293.4 -170.4 -275.2 -213.5 -244.8 -244.8C-214.3 -276 -171.4 -295.5 -128.6 -310.4C-85.7 -325.4 -42.9 -335.7 0 -346.1L0 0Z" fill="#2f2958"></path><path d="M-259.6 0C-250.9 -31.8 -242.3 -63.7 -231.2 -95.7C-220 -127.8 -206.4 -160.1 -183.6 -183.6C-160.7 -207 -128.6 -221.6 -96.4 -232.8C-64.3 -244 -32.1 -251.8 0 -259.6L0 0Z" fill="#6a2d6f"></path><path d="M-173.1 0C-167.3 -21.2 -161.5 -42.5 -154.1 -63.8C-146.7 -85.2 -137.6 -106.7 -122.4 -122.4C-107.1 -138 -85.7 -147.7 -64.3 -155.2C-42.9 -162.7 -21.4 -167.9 0 -173.1L0 0Z" fill="#a92670"></path><path d="M-86.5 0C-83.6 -10.6 -80.8 -21.2 -77.1 -31.9C-73.3 -42.6 -68.8 -53.4 -61.2 -61.2C-53.6 -69 -42.9 -73.9 -32.1 -77.6C-21.4 -81.3 -10.7 -83.9 0 -86.5L0 0Z" fill="#c62368"></path></g><g transform="translate(0, 0)"><path d="M432.7 0C427.2 57.2 421.7 114.5 399.7 165.6C377.7 216.7 339.2 261.7 296.3 296.3C253.3 330.9 205.9 355 155.8 376C105.6 397 52.8 414.8 0 432.7L0 0Z" fill="#061c33"></path><path d="M346.1 0C341.8 45.8 337.4 91.6 319.8 132.5C302.2 173.4 271.4 209.4 237 237C202.6 264.7 164.7 284 124.6 300.8C84.5 317.6 42.3 331.9 0 346.1L0 0Z" fill="#2f2958"></path><path d="M259.6 0C256.3 34.3 253 68.7 239.8 99.3C226.6 130 203.5 157 177.8 177.8C152 198.5 123.5 213 93.5 225.6C63.4 238.2 31.7 248.9 0 259.6L0 0Z" fill="#6a2d6f"></path><path d="M173.1 0C170.9 22.9 168.7 45.8 159.9 66.2C151.1 86.7 135.7 104.7 118.5 118.5C101.3 132.3 82.4 142 62.3 150.4C42.3 158.8 21.1 165.9 0 173.1L0 0Z" fill="#a92670"></path><path d="M86.5 0C85.4 11.4 84.3 22.9 79.9 33.1C75.5 43.3 67.8 52.3 59.3 59.3C50.7 66.2 41.2 71 31.2 75.2C21.1 79.4 10.6 83 0 86.5L0 0Z" fill="#c62368"></path></g></svg>